<svg xmlns="http://www.w3.org/2000/svg" xmlns:xlink="http://www.w3.org/1999/xlink" width="500" zoomAndPan="magnify" viewBox="0 0 375 374.999991" height="500" preserveAspectRatio="xMidYMid meet" version="1.0"><defs><g/><clipPath id="id1"><path d="M 111.429688 131 L 195 131 L 195 191.980469 L 111.429688 191.980469 Z M 111.429688 131 " clip-rule="nonzero"/></clipPath><clipPath id="id2"><path d="M 180 116.230469 L 263.679688 116.230469 L 263.679688 177 L 180 177 Z M 180 116.230469 " clip-rule="nonzero"/></clipPath><clipPath id="id3"><path d="M 157 144 L 163 144 L 163 181.414062 L 157 181.414062 Z M 157 144 " clip-rule="nonzero"/></clipPath><clipPath id="id4"><path d="M 172 151 L 178.0625 151 L 178.0625 175 L 172 175 Z M 172 151 " clip-rule="nonzero"/></clipPath><clipPath id="id5"><path d="M 197.34375 135 L 203 135 L 203 159 L 197.34375 159 Z M 197.34375 135 " clip-rule="nonzero"/></clipPath><clipPath id="id6"><path d="M 220 134 L 225.84375 134 L 225.84375 160 L 220 160 Z M 220 134 " clip-rule="nonzero"/></clipPath></defs><g clip-path="url(#id1)"><path fill="rgb(14.509583%, 20.388794%, 22.349548%)" d="M 111.425781 143.015625 L 134.46875 161.636719 L 134.46875 173.394531 C 134.46875 183.660156 142.789062 191.984375 153.054688 191.984375 L 176.109375 191.984375 C 186.375 191.984375 194.695312 183.660156 194.695312 173.394531 L 194.695312 150.332031 C 194.695312 140.066406 186.375 131.746094 176.109375 131.746094 L 153.054688 131.746094 C 142.789062 131.746094 134.46875 140.066406 134.46875 150.332031 L 134.46875 153.324219 L 111.425781 143.015625 " fill-opacity="1" fill-rule="nonzero"/></g><g clip-path="url(#id2)"><path fill="rgb(14.509583%, 20.388794%, 22.349548%)" d="M 222.046875 176.480469 L 198.988281 176.480469 C 197.449219 176.480469 195.953125 176.292969 194.523438 175.9375 C 194.636719 175.105469 194.695312 174.257812 194.695312 173.394531 L 194.695312 150.332031 C 194.695312 141.605469 188.683594 134.285156 180.574219 132.285156 C 181.816406 123.222656 189.585938 116.242188 198.988281 116.242188 L 222.046875 116.242188 C 232.308594 116.242188 240.628906 124.5625 240.628906 134.828125 L 240.628906 146.585938 L 263.671875 165.207031 L 240.628906 154.898438 L 240.628906 157.890625 C 240.628906 168.15625 232.308594 176.480469 222.046875 176.480469 " fill-opacity="1" fill-rule="nonzero"/></g><path fill="rgb(48.629761%, 53.729248%, 54.508972%)" d="M 194.523438 175.9375 C 186.414062 173.941406 180.402344 166.617188 180.402344 157.890625 L 180.402344 134.828125 C 180.402344 133.964844 180.460938 133.117188 180.574219 132.285156 C 188.683594 134.285156 194.695312 141.605469 194.695312 150.332031 L 194.695312 173.394531 C 194.695312 174.257812 194.636719 175.105469 194.523438 175.9375 " fill-opacity="1" fill-rule="nonzero"/><g clip-path="url(#id3)"><path fill="rgb(96.469116%, 95.689392%, 94.509888%)" d="M 160.238281 144.878906 C 160.578125 144.878906 160.902344 144.945312 161.214844 145.074219 C 161.527344 145.203125 161.800781 145.386719 162.039062 145.625 C 162.277344 145.867188 162.460938 146.140625 162.59375 146.453125 C 162.722656 146.769531 162.785156 147.09375 162.785156 147.433594 L 162.785156 178.480469 C 162.785156 178.820312 162.722656 179.144531 162.59375 179.457031 C 162.460938 179.773438 162.277344 180.046875 162.039062 180.289062 C 161.800781 180.527344 161.527344 180.710938 161.214844 180.839844 C 160.902344 180.96875 160.578125 181.035156 160.238281 181.035156 C 159.902344 181.035156 159.578125 180.96875 159.265625 180.839844 C 158.953125 180.710938 158.679688 180.527344 158.4375 180.289062 C 158.199219 180.046875 158.015625 179.773438 157.886719 179.457031 C 157.757812 179.144531 157.695312 178.820312 157.695312 178.480469 L 157.695312 147.433594 C 157.695312 147.09375 157.757812 146.769531 157.886719 146.453125 C 158.015625 146.140625 158.199219 145.867188 158.4375 145.625 C 158.679688 145.386719 158.953125 145.203125 159.265625 145.074219 C 159.578125 144.945312 159.902344 144.878906 160.238281 144.878906 Z M 160.238281 144.878906 " fill-opacity="1" fill-rule="nonzero"/></g><g clip-path="url(#id4)"><path fill="rgb(96.469116%, 95.689392%, 94.509888%)" d="M 175.515625 151.441406 C 175.851562 151.441406 176.179688 151.503906 176.488281 151.636719 C 176.800781 151.765625 177.078125 151.949219 177.316406 152.1875 C 177.554688 152.429688 177.738281 152.703125 177.867188 153.015625 C 177.996094 153.328125 178.0625 153.65625 178.0625 153.996094 L 178.0625 171.867188 C 178.0625 172.207031 177.996094 172.53125 177.867188 172.84375 C 177.738281 173.160156 177.554688 173.433594 177.316406 173.671875 C 177.078125 173.914062 176.800781 174.097656 176.488281 174.226562 C 176.179688 174.355469 175.851562 174.421875 175.515625 174.421875 C 175.179688 174.421875 174.851562 174.355469 174.542969 174.226562 C 174.230469 174.097656 173.953125 173.914062 173.714844 173.671875 C 173.476562 173.433594 173.292969 173.160156 173.164062 172.84375 C 173.035156 172.53125 172.96875 172.207031 172.96875 171.867188 L 172.96875 153.996094 C 172.96875 153.65625 173.035156 153.328125 173.164062 153.015625 C 173.292969 152.703125 173.476562 152.429688 173.714844 152.1875 C 173.953125 151.949219 174.230469 151.765625 174.542969 151.636719 C 174.851562 151.503906 175.179688 151.441406 175.515625 151.441406 Z M 175.515625 151.441406 " fill-opacity="1" fill-rule="nonzero"/></g><path fill="rgb(96.469116%, 95.689392%, 94.509888%)" d="M 150.054688 152.792969 C 150.054688 152.457031 150.121094 152.128906 150.25 151.816406 C 150.378906 151.503906 150.5625 151.226562 150.800781 150.988281 C 151.039062 150.75 151.316406 150.566406 151.628906 150.433594 C 151.9375 150.304688 152.265625 150.242188 152.601562 150.242188 C 152.9375 150.242188 153.265625 150.304688 153.574219 150.433594 C 153.886719 150.566406 154.164062 150.75 154.402344 150.988281 C 154.640625 151.226562 154.824219 151.503906 154.953125 151.816406 C 155.082031 152.128906 155.148438 152.457031 155.148438 152.792969 L 155.148438 173.222656 C 155.148438 173.558594 155.082031 173.886719 154.953125 174.199219 C 154.824219 174.511719 154.640625 174.789062 154.402344 175.027344 C 154.164062 175.265625 153.886719 175.449219 153.574219 175.582031 C 153.265625 175.710938 152.9375 175.773438 152.601562 175.773438 C 152.265625 175.773438 151.9375 175.710938 151.628906 175.582031 C 151.316406 175.449219 151.039062 175.265625 150.800781 175.027344 C 150.5625 174.789062 150.378906 174.511719 150.25 174.199219 C 150.121094 173.886719 150.054688 173.558594 150.054688 173.222656 Z M 150.054688 152.792969 " fill-opacity="1" fill-rule="nonzero"/><path fill="rgb(96.469116%, 95.689392%, 94.509888%)" d="M 167.878906 155.347656 C 168.214844 155.347656 168.539062 155.414062 168.851562 155.542969 C 169.164062 155.671875 169.4375 155.855469 169.679688 156.09375 C 169.917969 156.335938 170.101562 156.609375 170.230469 156.925781 C 170.359375 157.238281 170.421875 157.5625 170.421875 157.902344 L 170.421875 168.113281 C 170.421875 168.453125 170.359375 168.777344 170.230469 169.09375 C 170.101562 169.40625 169.917969 169.679688 169.679688 169.921875 C 169.4375 170.160156 169.164062 170.34375 168.851562 170.472656 C 168.539062 170.601562 168.214844 170.667969 167.878906 170.667969 C 167.539062 170.667969 167.214844 170.601562 166.902344 170.472656 C 166.589844 170.34375 166.316406 170.160156 166.078125 169.921875 C 165.839844 169.679688 165.65625 169.40625 165.527344 169.09375 C 165.394531 168.777344 165.332031 168.453125 165.332031 168.113281 L 165.332031 157.902344 C 165.332031 157.5625 165.394531 157.238281 165.527344 156.925781 C 165.65625 156.609375 165.839844 156.335938 166.078125 156.09375 C 166.316406 155.855469 166.589844 155.671875 166.902344 155.542969 C 167.214844 155.414062 167.539062 155.347656 167.878906 155.347656 Z M 167.878906 155.347656 " fill-opacity="1" fill-rule="nonzero"/><path fill="rgb(96.469116%, 95.689392%, 94.509888%)" d="M 215.164062 128.820312 C 214.828125 128.820312 214.503906 128.886719 214.191406 129.015625 C 213.878906 129.144531 213.601562 129.328125 213.363281 129.570312 C 213.125 129.808594 212.941406 130.085938 212.8125 130.398438 C 212.683594 130.710938 212.617188 131.035156 212.617188 131.375 L 212.617188 162.425781 C 212.617188 162.761719 212.683594 163.089844 212.8125 163.402344 C 212.941406 163.714844 213.125 163.988281 213.363281 164.230469 C 213.601562 164.46875 213.878906 164.652344 214.191406 164.78125 C 214.503906 164.914062 214.828125 164.976562 215.164062 164.976562 C 215.503906 164.976562 215.828125 164.914062 216.140625 164.78125 C 216.449219 164.652344 216.726562 164.46875 216.964844 164.230469 C 217.203125 163.988281 217.386719 163.714844 217.515625 163.402344 C 217.644531 163.089844 217.710938 162.761719 217.710938 162.425781 L 217.710938 131.375 C 217.710938 131.035156 217.644531 130.710938 217.515625 130.398438 C 217.386719 130.085938 217.203125 129.808594 216.964844 129.570312 C 216.726562 129.328125 216.449219 129.144531 216.140625 129.015625 C 215.828125 128.886719 215.503906 128.820312 215.164062 128.820312 Z M 215.164062 128.820312 " fill-opacity="1" fill-rule="nonzero"/><g clip-path="url(#id5)"><path fill="rgb(96.469116%, 95.689392%, 94.509888%)" d="M 199.886719 135.382812 C 199.550781 135.382812 199.226562 135.449219 198.914062 135.578125 C 198.601562 135.707031 198.328125 135.890625 198.089844 136.132812 C 197.847656 136.371094 197.664062 136.648438 197.535156 136.960938 C 197.40625 137.273438 197.34375 137.597656 197.34375 137.9375 L 197.34375 155.8125 C 197.34375 156.148438 197.40625 156.476562 197.535156 156.789062 C 197.664062 157.101562 197.847656 157.375 198.089844 157.617188 C 198.328125 157.855469 198.601562 158.039062 198.914062 158.167969 C 199.226562 158.300781 199.550781 158.363281 199.886719 158.363281 C 200.226562 158.363281 200.550781 158.300781 200.863281 158.167969 C 201.175781 158.039062 201.449219 157.855469 201.6875 157.617188 C 201.925781 157.375 202.113281 157.101562 202.242188 156.789062 C 202.371094 156.476562 202.433594 156.148438 202.433594 155.8125 L 202.433594 137.9375 C 202.433594 137.597656 202.371094 137.273438 202.242188 136.960938 C 202.113281 136.648438 201.925781 136.371094 201.6875 136.132812 C 201.449219 135.890625 201.175781 135.707031 200.863281 135.578125 C 200.550781 135.449219 200.226562 135.382812 199.886719 135.382812 Z M 199.886719 135.382812 " fill-opacity="1" fill-rule="nonzero"/></g><g clip-path="url(#id6)"><path fill="rgb(96.469116%, 95.689392%, 94.509888%)" d="M 225.347656 136.738281 C 225.347656 136.398438 225.285156 136.070312 225.15625 135.757812 C 225.027344 135.445312 224.84375 135.171875 224.601562 134.929688 C 224.363281 134.691406 224.089844 134.507812 223.777344 134.378906 C 223.464844 134.246094 223.140625 134.183594 222.804688 134.183594 C 222.464844 134.183594 222.140625 134.246094 221.828125 134.378906 C 221.515625 134.507812 221.242188 134.691406 221.003906 134.929688 C 220.765625 135.171875 220.578125 135.445312 220.449219 135.757812 C 220.320312 136.070312 220.257812 136.398438 220.257812 136.738281 L 220.257812 157.164062 C 220.257812 157.503906 220.320312 157.828125 220.449219 158.140625 C 220.578125 158.453125 220.765625 158.730469 221.003906 158.96875 C 221.242188 159.207031 221.515625 159.394531 221.828125 159.523438 C 222.140625 159.652344 222.464844 159.71875 222.804688 159.71875 C 223.140625 159.71875 223.464844 159.652344 223.777344 159.523438 C 224.089844 159.394531 224.363281 159.207031 224.601562 158.96875 C 224.84375 158.730469 225.027344 158.453125 225.15625 158.140625 C 225.285156 157.828125 225.347656 157.503906 225.347656 157.164062 Z M 225.347656 136.738281 " fill-opacity="1" fill-rule="nonzero"/></g><path fill="rgb(96.469116%, 95.689392%, 94.509888%)" d="M 207.527344 139.289062 C 207.1875 139.289062 206.863281 139.355469 206.550781 139.484375 C 206.242188 139.613281 205.964844 139.796875 205.726562 140.039062 C 205.488281 140.277344 205.304688 140.554688 205.175781 140.867188 C 205.046875 141.179688 204.980469 141.503906 204.980469 141.84375 L 204.980469 152.058594 C 204.980469 152.394531 205.046875 152.722656 205.175781 153.035156 C 205.304688 153.347656 205.488281 153.625 205.726562 153.863281 C 205.964844 154.101562 206.242188 154.285156 206.550781 154.417969 C 206.863281 154.546875 207.1875 154.609375 207.527344 154.609375 C 207.863281 154.609375 208.1875 154.546875 208.5 154.417969 C 208.8125 154.285156 209.089844 154.101562 209.328125 153.863281 C 209.566406 153.625 209.75 153.347656 209.878906 153.035156 C 210.007812 152.722656 210.074219 152.394531 210.074219 152.058594 L 210.074219 141.84375 C 210.074219 141.503906 210.007812 141.179688 209.878906 140.867188 C 209.75 140.554688 209.566406 140.277344 209.328125 140.039062 C 209.089844 139.796875 208.8125 139.613281 208.5 139.484375 C 208.1875 139.355469 207.863281 139.289062 207.527344 139.289062 Z M 207.527344 139.289062 " fill-opacity="1" fill-rule="nonzero"/><g fill="rgb(14.509583%, 20.388794%, 22.349548%)" fill-opacity="1"><g transform="translate(102.333496, 240.2591)"><g><path d="M 12.171875 -10.453125 C 11.765625 -10.421875 11.332031 -10.40625 10.875 -10.40625 C 10.414062 -10.40625 9.734375 -10.441406 8.828125 -10.515625 L 8.828125 0 L 3.484375 0 L 3.484375 -27.03125 C 5.367188 -27.269531 7.6875 -27.390625 10.4375 -27.390625 C 14.175781 -27.390625 16.96875 -26.695312 18.8125 -25.3125 C 20.65625 -23.9375 21.578125 -21.804688 21.578125 -18.921875 C 21.578125 -16.679688 20.734375 -14.769531 19.046875 -13.1875 C 18.492188 -12.664062 17.859375 -12.21875 17.140625 -11.84375 L 21.265625 -3.15625 C 22.078125 -1.363281 22.695312 -0.296875 23.125 0.046875 L 23.03125 0.140625 C 21.71875 -0.078125 19.660156 -0.0703125 16.859375 0.15625 Z M 10.8125 -22.625 C 10.125 -22.625 9.460938 -22.585938 8.828125 -22.515625 L 8.828125 -14.796875 C 9.492188 -14.703125 10.269531 -14.65625 11.15625 -14.65625 C 12.050781 -14.65625 12.800781 -14.734375 13.40625 -14.890625 C 14.007812 -15.046875 14.535156 -15.285156 14.984375 -15.609375 C 15.941406 -16.328125 16.421875 -17.398438 16.421875 -18.828125 C 16.421875 -20.253906 15.921875 -21.253906 14.921875 -21.828125 C 13.992188 -22.359375 12.625 -22.625 10.8125 -22.625 Z M 10.8125 -22.625 "/></g></g></g><g fill="rgb(14.509583%, 20.388794%, 22.349548%)" fill-opacity="1"><g transform="translate(132.240846, 240.2591)"><g><path d="M 17 -4.859375 C 17.832031 -4.859375 18.410156 -4.9375 18.734375 -5.09375 L 18.828125 -5.078125 L 18.625 0 L 3.484375 0 L 3.484375 -27.03125 C 3.835938 -27 4.238281 -26.976562 4.6875 -26.96875 L 6.109375 -26.9375 C 7.046875 -26.90625 8.066406 -26.890625 9.171875 -26.890625 C 12.265625 -26.890625 15.320312 -26.941406 18.34375 -27.046875 C 18.1875 -25.859375 18.109375 -24.273438 18.109375 -22.296875 C 18.109375 -22.085938 18.125 -21.925781 18.15625 -21.8125 L 18.109375 -21.75 C 17.410156 -21.957031 16.414062 -22.0625 15.125 -22.0625 L 8.75 -22.0625 L 8.75 -16.90625 L 13.546875 -16.90625 C 15.023438 -16.90625 15.914062 -16.945312 16.21875 -17.03125 L 16.28125 -12.03125 C 15.632812 -12.09375 14.796875 -12.125 13.765625 -12.125 L 8.75 -12.125 L 8.75 -4.859375 Z M 17 -4.859375 "/></g></g></g><g fill="rgb(14.509583%, 20.388794%, 22.349548%)" fill-opacity="1"><g transform="translate(158.773081, 240.2591)"><g><path d="M 15.53125 -27.390625 C 18.050781 -27.390625 20.203125 -26.953125 21.984375 -26.078125 L 21.984375 -19.890625 L 21.9375 -19.859375 C 21.175781 -21.015625 19.585938 -21.78125 17.171875 -22.15625 C 16.453125 -22.28125 15.546875 -22.34375 14.453125 -22.34375 C 13.359375 -22.34375 12.285156 -22.132812 11.234375 -21.71875 C 10.191406 -21.3125 9.332031 -20.726562 8.65625 -19.96875 C 7.34375 -18.5 6.6875 -16.40625 6.6875 -13.6875 C 6.6875 -10.519531 7.515625 -8.160156 9.171875 -6.609375 C 10.546875 -5.316406 12.367188 -4.671875 14.640625 -4.671875 C 17.203125 -4.671875 19.273438 -5.21875 20.859375 -6.3125 C 21.441406 -6.695312 21.9375 -7.179688 22.34375 -7.765625 L 22.40625 -7.71875 L 22.40625 -2.0625 C 20.34375 -0.351562 17.566406 0.5 14.078125 0.5 C 9.960938 0.5 6.738281 -0.804688 4.40625 -3.421875 C 2.164062 -5.910156 1.046875 -9.210938 1.046875 -13.328125 C 1.046875 -17.679688 2.273438 -21.109375 4.734375 -23.609375 C 7.210938 -26.128906 10.8125 -27.390625 15.53125 -27.390625 Z M 15.53125 -27.390625 "/></g></g></g><g fill="rgb(14.509583%, 20.388794%, 22.349548%)" fill-opacity="1"><g transform="translate(188.579382, 240.2591)"><g><path d="M 8.9375 0.125 C 7.644531 0.0390625 6.109375 0 4.328125 0 L 3.671875 0 L 3.671875 -26.984375 C 4.515625 -26.921875 5.109375 -26.890625 5.453125 -26.890625 L 6.28125 -26.890625 C 7.351562 -26.890625 8.238281 -26.941406 8.9375 -27.046875 L 8.9375 -16.28125 L 18.4375 -16.28125 L 18.4375 -26.984375 C 19.550781 -26.921875 20.640625 -26.890625 21.703125 -26.890625 C 22.765625 -26.890625 23.429688 -26.941406 23.703125 -27.046875 L 23.703125 0.125 C 23.046875 0.0390625 21.765625 0 19.859375 0 L 18.4375 0 L 18.4375 -11.421875 L 8.9375 -11.421875 Z M 8.9375 0.125 "/></g></g></g><g fill="rgb(14.509583%, 20.388794%, 22.349548%)" fill-opacity="1"><g transform="translate(221.942684, 240.2591)"><g><path d="M 5.4375 0.15625 C 4.28125 0.0507812 2.925781 0 1.375 0 L -0.21875 0 L 8.578125 -24.640625 C 8.960938 -25.742188 9.15625 -26.382812 9.15625 -26.5625 C 9.15625 -26.75 9.148438 -26.863281 9.140625 -26.90625 L 9.15625 -26.953125 C 10.03125 -26.910156 10.960938 -26.890625 11.953125 -26.890625 C 12.753906 -26.890625 13.722656 -26.90625 14.859375 -26.9375 L 14.875 -26.890625 C 14.851562 -26.835938 14.84375 -26.765625 14.84375 -26.671875 C 14.84375 -26.410156 15.046875 -25.726562 15.453125 -24.625 L 24.421875 0.0625 C 24.148438 0.0507812 23.832031 0.046875 23.46875 0.046875 C 23.46875 0.046875 23.117188 0.03125 22.421875 0 C 22.085938 0 21.785156 0 21.515625 0 L 18.375 0 L 16.484375 -5.828125 L 7.34375 -5.828125 Z M 14.90625 -10.671875 L 11.84375 -20.078125 L 8.875 -10.671875 Z M 14.90625 -10.671875 "/></g></g></g><g fill="rgb(14.509583%, 20.388794%, 22.349548%)" fill-opacity="1"><g transform="translate(251.930872, 240.2591)"><g><path d="M 13.1875 0.125 C 12.539062 0.0390625 10.875 0 8.1875 0 L 7.546875 0 L 7.546875 -22.359375 L 3.53125 -22.359375 C 2.351562 -22.359375 1.65625 -22.296875 1.4375 -22.171875 C 1.21875 -22.054688 1.050781 -21.953125 0.9375 -21.859375 L 0.875 -21.875 L 0.875 -27.046875 L 0.9375 -27.109375 C 1.375 -26.960938 2.570312 -26.890625 4.53125 -26.890625 L 17.203125 -26.890625 C 18.390625 -26.890625 19.085938 -26.945312 19.296875 -27.0625 C 19.515625 -27.1875 19.6875 -27.296875 19.8125 -27.390625 L 19.875 -27.375 L 19.875 -22.203125 L 19.8125 -22.140625 C 19.363281 -22.285156 18.164062 -22.359375 16.21875 -22.359375 L 13.1875 -22.359375 Z M 13.1875 0.125 "/></g></g></g><g fill="rgb(14.509583%, 20.388794%, 22.349548%)" fill-opacity="1"><g transform="translate(142.1093, 263.086892)"><g><path d="M 8.203125 -6.8125 C 7.960938 -6.789062 7.785156 -6.757812 7.671875 -6.71875 C 7.566406 -6.6875 7.492188 -6.613281 7.453125 -6.5 C 7.410156 -6.382812 7.390625 -6.203125 7.390625 -5.953125 L 7.390625 -1.046875 C 7.390625 -0.796875 7.410156 -0.613281 7.453125 -0.5 C 7.492188 -0.394531 7.566406 -0.320312 7.671875 -0.28125 C 7.785156 -0.238281 7.960938 -0.210938 8.203125 -0.203125 L 8.203125 0 C 7.898438 -0.0195312 7.476562 -0.03125 6.9375 -0.03125 C 6.375 -0.03125 5.953125 -0.0195312 5.671875 0 L 5.671875 -0.203125 C 5.910156 -0.210938 6.082031 -0.238281 6.1875 -0.28125 C 6.300781 -0.320312 6.378906 -0.394531 6.421875 -0.5 C 6.460938 -0.613281 6.484375 -0.796875 6.484375 -1.046875 L 6.484375 -6.34375 L 4.09375 0.046875 L 3.9375 0.046875 L 1.4375 -6.375 L 1.4375 -1.140625 C 1.4375 -0.890625 1.457031 -0.703125 1.5 -0.578125 C 1.550781 -0.453125 1.640625 -0.359375 1.765625 -0.296875 C 1.890625 -0.242188 2.082031 -0.210938 2.34375 -0.203125 L 2.34375 0 C 2.101562 -0.0195312 1.765625 -0.03125 1.328125 -0.03125 C 0.929688 -0.03125 0.628906 -0.0195312 0.421875 0 L 0.421875 -0.203125 C 0.648438 -0.210938 0.816406 -0.242188 0.921875 -0.296875 C 1.035156 -0.359375 1.113281 -0.453125 1.15625 -0.578125 C 1.195312 -0.703125 1.21875 -0.890625 1.21875 -1.140625 L 1.21875 -5.953125 C 1.21875 -6.203125 1.195312 -6.382812 1.15625 -6.5 C 1.113281 -6.613281 1.035156 -6.6875 0.921875 -6.71875 C 0.816406 -6.757812 0.648438 -6.789062 0.421875 -6.8125 L 0.421875 -7 C 0.628906 -6.976562 0.929688 -6.96875 1.328125 -6.96875 C 1.671875 -6.96875 1.953125 -6.976562 2.171875 -7 L 4.359375 -1.28125 L 6.484375 -6.96875 L 6.9375 -6.96875 C 7.476562 -6.96875 7.898438 -6.976562 8.203125 -7 Z M 8.203125 -6.8125 "/></g></g></g><g fill="rgb(14.509583%, 20.388794%, 22.349548%)" fill-opacity="1"><g transform="translate(150.914985, 263.086892)"><g><path d="M 4.578125 -1.1875 C 4.460938 -0.820312 4.238281 -0.507812 3.90625 -0.25 C 3.582031 0.0078125 3.191406 0.140625 2.734375 0.140625 C 2.265625 0.140625 1.859375 0.0351562 1.515625 -0.171875 C 1.171875 -0.390625 0.90625 -0.691406 0.71875 -1.078125 C 0.539062 -1.460938 0.453125 -1.910156 0.453125 -2.421875 C 0.453125 -2.992188 0.546875 -3.488281 0.734375 -3.90625 C 0.921875 -4.332031 1.179688 -4.660156 1.515625 -4.890625 C 1.847656 -5.117188 2.238281 -5.234375 2.6875 -5.234375 C 3.28125 -5.234375 3.738281 -5.050781 4.0625 -4.6875 C 4.382812 -4.332031 4.546875 -3.789062 4.546875 -3.0625 L 1.4375 -3.0625 C 1.425781 -2.875 1.421875 -2.660156 1.421875 -2.421875 C 1.421875 -1.984375 1.488281 -1.601562 1.625 -1.28125 C 1.769531 -0.957031 1.957031 -0.707031 2.1875 -0.53125 C 2.425781 -0.363281 2.671875 -0.28125 2.921875 -0.28125 C 3.242188 -0.28125 3.523438 -0.351562 3.765625 -0.5 C 4.015625 -0.65625 4.21875 -0.910156 4.375 -1.265625 Z M 2.65625 -5.046875 C 2.34375 -5.046875 2.070312 -4.894531 1.84375 -4.59375 C 1.625 -4.289062 1.488281 -3.84375 1.4375 -3.25 L 3.59375 -3.25 C 3.601562 -3.757812 3.523438 -4.1875 3.359375 -4.53125 C 3.203125 -4.875 2.96875 -5.046875 2.65625 -5.046875 Z M 2.65625 -5.046875 "/></g></g></g><g fill="rgb(14.509583%, 20.388794%, 22.349548%)" fill-opacity="1"><g transform="translate(156.113399, 263.086892)"><g><path d="M 2.0625 -5.234375 C 2.289062 -5.234375 2.5 -5.195312 2.6875 -5.125 C 2.875 -5.050781 3.023438 -4.960938 3.140625 -4.859375 C 3.210938 -4.804688 3.269531 -4.78125 3.3125 -4.78125 C 3.425781 -4.78125 3.5 -4.925781 3.53125 -5.21875 L 3.765625 -5.21875 C 3.734375 -4.894531 3.71875 -4.335938 3.71875 -3.546875 L 3.484375 -3.546875 C 3.410156 -3.972656 3.269531 -4.328125 3.0625 -4.609375 C 2.863281 -4.898438 2.554688 -5.046875 2.140625 -5.046875 C 1.910156 -5.046875 1.71875 -4.976562 1.5625 -4.84375 C 1.40625 -4.707031 1.328125 -4.519531 1.328125 -4.28125 C 1.328125 -4.050781 1.40625 -3.859375 1.5625 -3.703125 C 1.726562 -3.546875 1.984375 -3.359375 2.328125 -3.140625 C 2.390625 -3.109375 2.476562 -3.054688 2.59375 -2.984375 C 2.90625 -2.785156 3.148438 -2.609375 3.328125 -2.453125 C 3.515625 -2.296875 3.664062 -2.117188 3.78125 -1.921875 C 3.894531 -1.722656 3.953125 -1.5 3.953125 -1.25 C 3.953125 -0.8125 3.789062 -0.46875 3.46875 -0.21875 C 3.144531 0.0195312 2.742188 0.140625 2.265625 0.140625 C 1.960938 0.140625 1.703125 0.09375 1.484375 0 C 1.335938 -0.0703125 1.203125 -0.160156 1.078125 -0.265625 C 1.046875 -0.296875 1.015625 -0.3125 0.984375 -0.3125 C 0.941406 -0.3125 0.898438 -0.273438 0.859375 -0.203125 C 0.828125 -0.140625 0.800781 -0.0507812 0.78125 0.0625 L 0.546875 0.0625 C 0.578125 -0.3125 0.59375 -0.96875 0.59375 -1.90625 L 0.828125 -1.90625 C 0.898438 -1.289062 1.03125 -0.828125 1.21875 -0.515625 C 1.40625 -0.210938 1.734375 -0.0625 2.203125 -0.0625 C 2.429688 -0.0625 2.632812 -0.132812 2.8125 -0.28125 C 2.988281 -0.4375 3.078125 -0.675781 3.078125 -1 C 3.078125 -1.257812 2.988281 -1.476562 2.8125 -1.65625 C 2.632812 -1.832031 2.347656 -2.046875 1.953125 -2.296875 C 1.628906 -2.492188 1.378906 -2.660156 1.203125 -2.796875 C 1.035156 -2.929688 0.890625 -3.09375 0.765625 -3.28125 C 0.648438 -3.476562 0.59375 -3.703125 0.59375 -3.953125 C 0.59375 -4.367188 0.726562 -4.6875 1 -4.90625 C 1.28125 -5.125 1.632812 -5.234375 2.0625 -5.234375 Z M 2.0625 -5.234375 "/></g></g></g><g fill="rgb(14.509583%, 20.388794%, 22.349548%)" fill-opacity="1"><g transform="translate(160.728729, 263.086892)"><g><path d="M 2.0625 -5.234375 C 2.289062 -5.234375 2.5 -5.195312 2.6875 -5.125 C 2.875 -5.050781 3.023438 -4.960938 3.140625 -4.859375 C 3.210938 -4.804688 3.269531 -4.78125 3.3125 -4.78125 C 3.425781 -4.78125 3.5 -4.925781 3.53125 -5.21875 L 3.765625 -5.21875 C 3.734375 -4.894531 3.71875 -4.335938 3.71875 -3.546875 L 3.484375 -3.546875 C 3.410156 -3.972656 3.269531 -4.328125 3.0625 -4.609375 C 2.863281 -4.898438 2.554688 -5.046875 2.140625 -5.046875 C 1.910156 -5.046875 1.71875 -4.976562 1.5625 -4.84375 C 1.40625 -4.707031 1.328125 -4.519531 1.328125 -4.28125 C 1.328125 -4.050781 1.40625 -3.859375 1.5625 -3.703125 C 1.726562 -3.546875 1.984375 -3.359375 2.328125 -3.140625 C 2.390625 -3.109375 2.476562 -3.054688 2.59375 -2.984375 C 2.90625 -2.785156 3.148438 -2.609375 3.328125 -2.453125 C 3.515625 -2.296875 3.664062 -2.117188 3.78125 -1.921875 C 3.894531 -1.722656 3.953125 -1.5 3.953125 -1.25 C 3.953125 -0.8125 3.789062 -0.46875 3.46875 -0.21875 C 3.144531 0.0195312 2.742188 0.140625 2.265625 0.140625 C 1.960938 0.140625 1.703125 0.09375 1.484375 0 C 1.335938 -0.0703125 1.203125 -0.160156 1.078125 -0.265625 C 1.046875 -0.296875 1.015625 -0.3125 0.984375 -0.3125 C 0.941406 -0.3125 0.898438 -0.273438 0.859375 -0.203125 C 0.828125 -0.140625 0.800781 -0.0507812 0.78125 0.0625 L 0.546875 0.0625 C 0.578125 -0.3125 0.59375 -0.96875 0.59375 -1.90625 L 0.828125 -1.90625 C 0.898438 -1.289062 1.03125 -0.828125 1.21875 -0.515625 C 1.40625 -0.210938 1.734375 -0.0625 2.203125 -0.0625 C 2.429688 -0.0625 2.632812 -0.132812 2.8125 -0.28125 C 2.988281 -0.4375 3.078125 -0.675781 3.078125 -1 C 3.078125 -1.257812 2.988281 -1.476562 2.8125 -1.65625 C 2.632812 -1.832031 2.347656 -2.046875 1.953125 -2.296875 C 1.628906 -2.492188 1.378906 -2.660156 1.203125 -2.796875 C 1.035156 -2.929688 0.890625 -3.09375 0.765625 -3.28125 C 0.648438 -3.476562 0.59375 -3.703125 0.59375 -3.953125 C 0.59375 -4.367188 0.726562 -4.6875 1 -4.90625 C 1.28125 -5.125 1.632812 -5.234375 2.0625 -5.234375 Z M 2.0625 -5.234375 "/></g></g></g><g fill="rgb(14.509583%, 20.388794%, 22.349548%)" fill-opacity="1"><g transform="translate(165.34406, 263.086892)"><g><path d="M 1.609375 0.0625 C 1.191406 0.0625 0.882812 -0.0351562 0.6875 -0.234375 C 0.488281 -0.441406 0.390625 -0.734375 0.390625 -1.109375 C 0.390625 -1.398438 0.46875 -1.640625 0.625 -1.828125 C 0.789062 -2.023438 0.984375 -2.179688 1.203125 -2.296875 C 1.421875 -2.410156 1.710938 -2.53125 2.078125 -2.65625 C 2.441406 -2.78125 2.710938 -2.894531 2.890625 -3 C 3.078125 -3.101562 3.171875 -3.242188 3.171875 -3.421875 L 3.171875 -4.03125 C 3.171875 -4.414062 3.085938 -4.675781 2.921875 -4.8125 C 2.765625 -4.957031 2.539062 -5.03125 2.25 -5.03125 C 1.78125 -5.03125 1.453125 -4.910156 1.265625 -4.671875 C 1.398438 -4.640625 1.507812 -4.570312 1.59375 -4.46875 C 1.6875 -4.363281 1.734375 -4.234375 1.734375 -4.078125 C 1.734375 -3.910156 1.679688 -3.78125 1.578125 -3.6875 C 1.472656 -3.59375 1.335938 -3.546875 1.171875 -3.546875 C 0.984375 -3.546875 0.84375 -3.601562 0.75 -3.71875 C 0.65625 -3.832031 0.609375 -3.972656 0.609375 -4.140625 C 0.609375 -4.296875 0.644531 -4.425781 0.71875 -4.53125 C 0.800781 -4.632812 0.914062 -4.738281 1.0625 -4.84375 C 1.226562 -4.957031 1.429688 -5.050781 1.671875 -5.125 C 1.910156 -5.195312 2.175781 -5.234375 2.46875 -5.234375 C 2.988281 -5.234375 3.378906 -5.109375 3.640625 -4.859375 C 3.804688 -4.710938 3.914062 -4.53125 3.96875 -4.3125 C 4.03125 -4.101562 4.0625 -3.820312 4.0625 -3.46875 L 4.0625 -0.71875 C 4.0625 -0.550781 4.082031 -0.429688 4.125 -0.359375 C 4.164062 -0.285156 4.242188 -0.25 4.359375 -0.25 C 4.441406 -0.25 4.515625 -0.265625 4.578125 -0.296875 C 4.648438 -0.335938 4.726562 -0.394531 4.8125 -0.46875 L 4.921875 -0.296875 C 4.742188 -0.160156 4.59375 -0.0664062 4.46875 -0.015625 C 4.351562 0.0351562 4.203125 0.0625 4.015625 0.0625 C 3.703125 0.0625 3.484375 -0.015625 3.359375 -0.171875 C 3.234375 -0.328125 3.171875 -0.539062 3.171875 -0.8125 C 2.972656 -0.476562 2.742188 -0.25 2.484375 -0.125 C 2.222656 0 1.929688 0.0625 1.609375 0.0625 Z M 2.046875 -0.328125 C 2.484375 -0.328125 2.859375 -0.578125 3.171875 -1.078125 L 3.171875 -3.015625 C 3.109375 -2.921875 3.023438 -2.84375 2.921875 -2.78125 C 2.816406 -2.726562 2.65625 -2.648438 2.4375 -2.546875 C 2.1875 -2.441406 1.984375 -2.34375 1.828125 -2.25 C 1.671875 -2.15625 1.535156 -2.023438 1.421875 -1.859375 C 1.304688 -1.691406 1.25 -1.476562 1.25 -1.21875 C 1.25 -0.925781 1.320312 -0.703125 1.46875 -0.546875 C 1.613281 -0.398438 1.804688 -0.328125 2.046875 -0.328125 Z M 2.046875 -0.328125 "/></g></g></g><g fill="rgb(14.509583%, 20.388794%, 22.349548%)" fill-opacity="1"><g transform="translate(170.463415, 263.086892)"><g><path d="M 4.65625 -4.203125 C 4.539062 -4.203125 4.441406 -4.238281 4.359375 -4.3125 C 4.273438 -4.394531 4.234375 -4.515625 4.234375 -4.671875 C 4.234375 -4.796875 4.265625 -4.945312 4.328125 -5.125 C 4.160156 -5.050781 4.023438 -4.96875 3.921875 -4.875 C 3.828125 -4.789062 3.738281 -4.679688 3.65625 -4.546875 C 3.8125 -4.316406 3.890625 -4.023438 3.890625 -3.671875 C 3.890625 -3.148438 3.726562 -2.757812 3.40625 -2.5 C 3.09375 -2.238281 2.675781 -2.109375 2.15625 -2.109375 L 2.140625 -2.109375 C 1.921875 -1.984375 1.753906 -1.867188 1.640625 -1.765625 C 1.535156 -1.660156 1.484375 -1.539062 1.484375 -1.40625 C 1.484375 -1.195312 1.640625 -1.09375 1.953125 -1.09375 L 3.1875 -1.09375 C 3.644531 -1.09375 4.019531 -0.992188 4.3125 -0.796875 C 4.601562 -0.597656 4.75 -0.304688 4.75 0.078125 C 4.75 0.390625 4.644531 0.679688 4.4375 0.953125 C 4.238281 1.222656 3.941406 1.441406 3.546875 1.609375 C 3.148438 1.773438 2.671875 1.859375 2.109375 1.859375 C 1.535156 1.859375 1.054688 1.769531 0.671875 1.59375 C 0.285156 1.414062 0.09375 1.160156 0.09375 0.828125 C 0.09375 0.597656 0.179688 0.398438 0.359375 0.234375 C 0.546875 0.0664062 0.800781 -0.0546875 1.125 -0.140625 L 1.171875 0.015625 C 1.023438 0.0546875 0.910156 0.144531 0.828125 0.28125 C 0.742188 0.425781 0.703125 0.582031 0.703125 0.75 C 0.703125 1.050781 0.835938 1.28125 1.109375 1.4375 C 1.378906 1.601562 1.75 1.6875 2.21875 1.6875 C 2.726562 1.6875 3.160156 1.585938 3.515625 1.390625 C 3.878906 1.203125 4.0625 0.90625 4.0625 0.5 C 4.0625 0.257812 3.976562 0.078125 3.8125 -0.046875 C 3.644531 -0.179688 3.347656 -0.25 2.921875 -0.25 L 2.1875 -0.25 C 1.800781 -0.25 1.488281 -0.296875 1.25 -0.390625 C 1.019531 -0.492188 0.90625 -0.695312 0.90625 -1 C 0.90625 -1.207031 0.976562 -1.398438 1.125 -1.578125 C 1.269531 -1.765625 1.515625 -1.945312 1.859375 -2.125 C 1.421875 -2.175781 1.070312 -2.328125 0.8125 -2.578125 C 0.550781 -2.835938 0.421875 -3.203125 0.421875 -3.671875 C 0.421875 -4.191406 0.578125 -4.582031 0.890625 -4.84375 C 1.210938 -5.101562 1.632812 -5.234375 2.15625 -5.234375 C 2.769531 -5.234375 3.226562 -5.0625 3.53125 -4.71875 C 3.65625 -4.894531 3.8125 -5.039062 4 -5.15625 C 4.195312 -5.269531 4.390625 -5.328125 4.578125 -5.328125 C 4.753906 -5.328125 4.894531 -5.273438 5 -5.171875 C 5.101562 -5.078125 5.15625 -4.9375 5.15625 -4.75 C 5.15625 -4.570312 5.101562 -4.4375 5 -4.34375 C 4.894531 -4.25 4.78125 -4.203125 4.65625 -4.203125 Z M 2.15625 -2.28125 C 2.414062 -2.28125 2.613281 -2.382812 2.75 -2.59375 C 2.882812 -2.800781 2.953125 -3.160156 2.953125 -3.671875 C 2.953125 -4.179688 2.882812 -4.535156 2.75 -4.734375 C 2.613281 -4.941406 2.414062 -5.046875 2.15625 -5.046875 C 1.894531 -5.046875 1.695312 -4.941406 1.5625 -4.734375 C 1.425781 -4.535156 1.359375 -4.179688 1.359375 -3.671875 C 1.359375 -3.160156 1.425781 -2.800781 1.5625 -2.59375 C 1.695312 -2.382812 1.894531 -2.28125 2.15625 -2.28125 Z M 2.15625 -2.28125 "/></g></g></g><g fill="rgb(14.509583%, 20.388794%, 22.349548%)" fill-opacity="1"><g transform="translate(175.879256, 263.086892)"><g><path d="M 1.40625 -7.5625 C 1.582031 -7.5625 1.734375 -7.5 1.859375 -7.375 C 1.984375 -7.25 2.046875 -7.101562 2.046875 -6.9375 C 2.046875 -6.757812 1.984375 -6.609375 1.859375 -6.484375 C 1.734375 -6.359375 1.582031 -6.296875 1.40625 -6.296875 C 1.238281 -6.296875 1.09375 -6.359375 0.96875 -6.484375 C 0.84375 -6.609375 0.78125 -6.757812 0.78125 -6.9375 C 0.78125 -7.101562 0.84375 -7.25 0.96875 -7.375 C 1.09375 -7.5 1.238281 -7.5625 1.40625 -7.5625 Z M 1.921875 -0.921875 C 1.921875 -0.648438 1.976562 -0.460938 2.09375 -0.359375 C 2.207031 -0.253906 2.40625 -0.203125 2.6875 -0.203125 L 2.6875 0 C 2.070312 -0.03125 1.671875 -0.046875 1.484375 -0.046875 C 1.296875 -0.046875 0.894531 -0.03125 0.28125 0 L 0.28125 -0.203125 C 0.5625 -0.203125 0.753906 -0.253906 0.859375 -0.359375 C 0.972656 -0.460938 1.03125 -0.648438 1.03125 -0.921875 L 1.03125 -4.015625 C 1.03125 -4.316406 0.972656 -4.535156 0.859375 -4.671875 C 0.753906 -4.816406 0.5625 -4.890625 0.28125 -4.890625 L 0.28125 -5.09375 C 0.5 -5.070312 0.707031 -5.0625 0.90625 -5.0625 C 1.3125 -5.0625 1.648438 -5.109375 1.921875 -5.203125 Z M 1.921875 -0.921875 "/></g></g></g><g fill="rgb(14.509583%, 20.388794%, 22.349548%)" fill-opacity="1"><g transform="translate(178.97261, 263.086892)"><g><path d="M 3.609375 -5.234375 C 4.066406 -5.234375 4.414062 -5.109375 4.65625 -4.859375 C 4.78125 -4.722656 4.867188 -4.554688 4.921875 -4.359375 C 4.972656 -4.160156 5 -3.894531 5 -3.5625 L 5 -0.921875 C 5 -0.648438 5.054688 -0.460938 5.171875 -0.359375 C 5.285156 -0.253906 5.476562 -0.203125 5.75 -0.203125 L 5.75 0 C 5.144531 -0.03125 4.75 -0.046875 4.5625 -0.046875 C 4.382812 -0.046875 4.019531 -0.03125 3.46875 0 L 3.46875 -0.203125 C 3.707031 -0.203125 3.875 -0.253906 3.96875 -0.359375 C 4.0625 -0.460938 4.109375 -0.648438 4.109375 -0.921875 L 4.109375 -3.78125 C 4.109375 -4.144531 4.054688 -4.425781 3.953125 -4.625 C 3.847656 -4.820312 3.632812 -4.921875 3.3125 -4.921875 C 3.039062 -4.921875 2.800781 -4.835938 2.59375 -4.671875 C 2.382812 -4.515625 2.21875 -4.300781 2.09375 -4.03125 C 1.976562 -3.757812 1.921875 -3.453125 1.921875 -3.109375 L 1.921875 -0.921875 C 1.921875 -0.648438 1.96875 -0.460938 2.0625 -0.359375 C 2.164062 -0.253906 2.335938 -0.203125 2.578125 -0.203125 L 2.578125 0 C 2.023438 -0.03125 1.65625 -0.046875 1.46875 -0.046875 C 1.289062 -0.046875 0.894531 -0.03125 0.28125 0 L 0.28125 -0.203125 C 0.5625 -0.203125 0.753906 -0.253906 0.859375 -0.359375 C 0.972656 -0.460938 1.03125 -0.648438 1.03125 -0.921875 L 1.03125 -4.015625 C 1.03125 -4.316406 0.972656 -4.535156 0.859375 -4.671875 C 0.753906 -4.816406 0.5625 -4.890625 0.28125 -4.890625 L 0.28125 -5.09375 C 0.5 -5.070312 0.707031 -5.0625 0.90625 -5.0625 C 1.3125 -5.0625 1.648438 -5.109375 1.921875 -5.203125 L 1.921875 -4.03125 C 2.085938 -4.457031 2.316406 -4.765625 2.609375 -4.953125 C 2.910156 -5.140625 3.242188 -5.234375 3.609375 -5.234375 Z M 3.609375 -5.234375 "/></g></g></g><g fill="rgb(14.509583%, 20.388794%, 22.349548%)" fill-opacity="1"><g transform="translate(185.070373, 263.086892)"><g><path d="M 4.65625 -4.203125 C 4.539062 -4.203125 4.441406 -4.238281 4.359375 -4.3125 C 4.273438 -4.394531 4.234375 -4.515625 4.234375 -4.671875 C 4.234375 -4.796875 4.265625 -4.945312 4.328125 -5.125 C 4.160156 -5.050781 4.023438 -4.96875 3.921875 -4.875 C 3.828125 -4.789062 3.738281 -4.679688 3.65625 -4.546875 C 3.8125 -4.316406 3.890625 -4.023438 3.890625 -3.671875 C 3.890625 -3.148438 3.726562 -2.757812 3.40625 -2.5 C 3.09375 -2.238281 2.675781 -2.109375 2.15625 -2.109375 L 2.140625 -2.109375 C 1.921875 -1.984375 1.753906 -1.867188 1.640625 -1.765625 C 1.535156 -1.660156 1.484375 -1.539062 1.484375 -1.40625 C 1.484375 -1.195312 1.640625 -1.09375 1.953125 -1.09375 L 3.1875 -1.09375 C 3.644531 -1.09375 4.019531 -0.992188 4.3125 -0.796875 C 4.601562 -0.597656 4.75 -0.304688 4.75 0.078125 C 4.75 0.390625 4.644531 0.679688 4.4375 0.953125 C 4.238281 1.222656 3.941406 1.441406 3.546875 1.609375 C 3.148438 1.773438 2.671875 1.859375 2.109375 1.859375 C 1.535156 1.859375 1.054688 1.769531 0.671875 1.59375 C 0.285156 1.414062 0.09375 1.160156 0.09375 0.828125 C 0.09375 0.597656 0.179688 0.398438 0.359375 0.234375 C 0.546875 0.0664062 0.800781 -0.0546875 1.125 -0.140625 L 1.171875 0.015625 C 1.023438 0.0546875 0.910156 0.144531 0.828125 0.28125 C 0.742188 0.425781 0.703125 0.582031 0.703125 0.75 C 0.703125 1.050781 0.835938 1.28125 1.109375 1.4375 C 1.378906 1.601562 1.75 1.6875 2.21875 1.6875 C 2.726562 1.6875 3.160156 1.585938 3.515625 1.390625 C 3.878906 1.203125 4.0625 0.90625 4.0625 0.5 C 4.0625 0.257812 3.976562 0.078125 3.8125 -0.046875 C 3.644531 -0.179688 3.347656 -0.25 2.921875 -0.25 L 2.1875 -0.25 C 1.800781 -0.25 1.488281 -0.296875 1.25 -0.390625 C 1.019531 -0.492188 0.90625 -0.695312 0.90625 -1 C 0.90625 -1.207031 0.976562 -1.398438 1.125 -1.578125 C 1.269531 -1.765625 1.515625 -1.945312 1.859375 -2.125 C 1.421875 -2.175781 1.070312 -2.328125 0.8125 -2.578125 C 0.550781 -2.835938 0.421875 -3.203125 0.421875 -3.671875 C 0.421875 -4.191406 0.578125 -4.582031 0.890625 -4.84375 C 1.210938 -5.101562 1.632812 -5.234375 2.15625 -5.234375 C 2.769531 -5.234375 3.226562 -5.0625 3.53125 -4.71875 C 3.65625 -4.894531 3.8125 -5.039062 4 -5.15625 C 4.195312 -5.269531 4.390625 -5.328125 4.578125 -5.328125 C 4.753906 -5.328125 4.894531 -5.273438 5 -5.171875 C 5.101562 -5.078125 5.15625 -4.9375 5.15625 -4.75 C 5.15625 -4.570312 5.101562 -4.4375 5 -4.34375 C 4.894531 -4.25 4.78125 -4.203125 4.65625 -4.203125 Z M 2.15625 -2.28125 C 2.414062 -2.28125 2.613281 -2.382812 2.75 -2.59375 C 2.882812 -2.800781 2.953125 -3.160156 2.953125 -3.671875 C 2.953125 -4.179688 2.882812 -4.535156 2.75 -4.734375 C 2.613281 -4.941406 2.414062 -5.046875 2.15625 -5.046875 C 1.894531 -5.046875 1.695312 -4.941406 1.5625 -4.734375 C 1.425781 -4.535156 1.359375 -4.179688 1.359375 -3.671875 C 1.359375 -3.160156 1.425781 -2.800781 1.5625 -2.59375 C 1.695312 -2.382812 1.894531 -2.28125 2.15625 -2.28125 Z M 2.15625 -2.28125 "/></g></g></g><g fill="rgb(14.509583%, 20.388794%, 22.349548%)" fill-opacity="1"><g transform="translate(190.486214, 263.086892)"><g/></g></g><g fill="rgb(14.509583%, 20.388794%, 22.349548%)" fill-opacity="1"><g transform="translate(193.144722, 263.086892)"><g><path d="M 7.875 -0.921875 C 7.875 -0.648438 7.929688 -0.460938 8.046875 -0.359375 C 8.160156 -0.253906 8.359375 -0.203125 8.640625 -0.203125 L 8.640625 0 C 8.023438 -0.03125 7.628906 -0.046875 7.453125 -0.046875 C 7.265625 -0.046875 6.894531 -0.03125 6.34375 0 L 6.34375 -0.203125 C 6.582031 -0.203125 6.75 -0.253906 6.84375 -0.359375 C 6.945312 -0.460938 7 -0.648438 7 -0.921875 L 7 -3.78125 C 7 -4.03125 6.984375 -4.234375 6.953125 -4.390625 C 6.921875 -4.546875 6.847656 -4.671875 6.734375 -4.765625 C 6.628906 -4.867188 6.460938 -4.921875 6.234375 -4.921875 C 5.984375 -4.921875 5.753906 -4.835938 5.546875 -4.671875 C 5.347656 -4.515625 5.191406 -4.300781 5.078125 -4.03125 C 4.960938 -3.757812 4.90625 -3.457031 4.90625 -3.125 L 4.90625 -0.921875 C 4.90625 -0.648438 4.957031 -0.460938 5.0625 -0.359375 C 5.175781 -0.253906 5.375 -0.203125 5.65625 -0.203125 L 5.65625 0 C 5.050781 -0.03125 4.65625 -0.046875 4.46875 -0.046875 C 4.28125 -0.046875 3.910156 -0.03125 3.359375 0 L 3.359375 -0.203125 C 3.609375 -0.203125 3.78125 -0.253906 3.875 -0.359375 C 3.96875 -0.460938 4.015625 -0.648438 4.015625 -0.921875 L 4.015625 -3.78125 C 4.015625 -4.03125 4 -4.234375 3.96875 -4.390625 C 3.9375 -4.546875 3.863281 -4.671875 3.75 -4.765625 C 3.644531 -4.867188 3.484375 -4.921875 3.265625 -4.921875 C 3.015625 -4.921875 2.785156 -4.835938 2.578125 -4.671875 C 2.378906 -4.515625 2.21875 -4.296875 2.09375 -4.015625 C 1.976562 -3.742188 1.921875 -3.441406 1.921875 -3.109375 L 1.921875 -0.921875 C 1.921875 -0.648438 1.96875 -0.460938 2.0625 -0.359375 C 2.164062 -0.253906 2.335938 -0.203125 2.578125 -0.203125 L 2.578125 0 C 2.023438 -0.03125 1.65625 -0.046875 1.46875 -0.046875 C 1.289062 -0.046875 0.894531 -0.03125 0.28125 0 L 0.28125 -0.203125 C 0.5625 -0.203125 0.753906 -0.253906 0.859375 -0.359375 C 0.972656 -0.460938 1.03125 -0.648438 1.03125 -0.921875 L 1.03125 -4.015625 C 1.03125 -4.316406 0.972656 -4.535156 0.859375 -4.671875 C 0.753906 -4.816406 0.5625 -4.890625 0.28125 -4.890625 L 0.28125 -5.09375 C 0.5 -5.070312 0.707031 -5.0625 0.90625 -5.0625 C 1.3125 -5.0625 1.648438 -5.109375 1.921875 -5.203125 L 1.921875 -4.03125 C 2.085938 -4.445312 2.3125 -4.75 2.59375 -4.9375 C 2.882812 -5.132812 3.203125 -5.234375 3.546875 -5.234375 C 3.992188 -5.234375 4.335938 -5.109375 4.578125 -4.859375 C 4.742188 -4.679688 4.847656 -4.414062 4.890625 -4.0625 C 5.054688 -4.476562 5.28125 -4.773438 5.5625 -4.953125 C 5.851562 -5.140625 6.175781 -5.234375 6.53125 -5.234375 C 6.976562 -5.234375 7.320312 -5.109375 7.5625 -4.859375 C 7.675781 -4.722656 7.753906 -4.550781 7.796875 -4.34375 C 7.847656 -4.144531 7.875 -3.882812 7.875 -3.5625 Z M 7.875 -0.921875 "/></g></g></g><g fill="rgb(14.509583%, 20.388794%, 22.349548%)" fill-opacity="1"><g transform="translate(202.118426, 263.086892)"><g><path d="M 1.609375 0.0625 C 1.191406 0.0625 0.882812 -0.0351562 0.6875 -0.234375 C 0.488281 -0.441406 0.390625 -0.734375 0.390625 -1.109375 C 0.390625 -1.398438 0.46875 -1.640625 0.625 -1.828125 C 0.789062 -2.023438 0.984375 -2.179688 1.203125 -2.296875 C 1.421875 -2.410156 1.710938 -2.53125 2.078125 -2.65625 C 2.441406 -2.78125 2.710938 -2.894531 2.890625 -3 C 3.078125 -3.101562 3.171875 -3.242188 3.171875 -3.421875 L 3.171875 -4.03125 C 3.171875 -4.414062 3.085938 -4.675781 2.921875 -4.8125 C 2.765625 -4.957031 2.539062 -5.03125 2.25 -5.03125 C 1.78125 -5.03125 1.453125 -4.910156 1.265625 -4.671875 C 1.398438 -4.640625 1.507812 -4.570312 1.59375 -4.46875 C 1.6875 -4.363281 1.734375 -4.234375 1.734375 -4.078125 C 1.734375 -3.910156 1.679688 -3.78125 1.578125 -3.6875 C 1.472656 -3.59375 1.335938 -3.546875 1.171875 -3.546875 C 0.984375 -3.546875 0.84375 -3.601562 0.75 -3.71875 C 0.65625 -3.832031 0.609375 -3.972656 0.609375 -4.140625 C 0.609375 -4.296875 0.644531 -4.425781 0.71875 -4.53125 C 0.800781 -4.632812 0.914062 -4.738281 1.0625 -4.84375 C 1.226562 -4.957031 1.429688 -5.050781 1.671875 -5.125 C 1.910156 -5.195312 2.175781 -5.234375 2.46875 -5.234375 C 2.988281 -5.234375 3.378906 -5.109375 3.640625 -4.859375 C 3.804688 -4.710938 3.914062 -4.53125 3.96875 -4.3125 C 4.03125 -4.101562 4.0625 -3.820312 4.0625 -3.46875 L 4.0625 -0.71875 C 4.0625 -0.550781 4.082031 -0.429688 4.125 -0.359375 C 4.164062 -0.285156 4.242188 -0.25 4.359375 -0.25 C 4.441406 -0.25 4.515625 -0.265625 4.578125 -0.296875 C 4.648438 -0.335938 4.726562 -0.394531 4.8125 -0.46875 L 4.921875 -0.296875 C 4.742188 -0.160156 4.59375 -0.0664062 4.46875 -0.015625 C 4.351562 0.0351562 4.203125 0.0625 4.015625 0.0625 C 3.703125 0.0625 3.484375 -0.015625 3.359375 -0.171875 C 3.234375 -0.328125 3.171875 -0.539062 3.171875 -0.8125 C 2.972656 -0.476562 2.742188 -0.25 2.484375 -0.125 C 2.222656 0 1.929688 0.0625 1.609375 0.0625 Z M 2.046875 -0.328125 C 2.484375 -0.328125 2.859375 -0.578125 3.171875 -1.078125 L 3.171875 -3.015625 C 3.109375 -2.921875 3.023438 -2.84375 2.921875 -2.78125 C 2.816406 -2.726562 2.65625 -2.648438 2.4375 -2.546875 C 2.1875 -2.441406 1.984375 -2.34375 1.828125 -2.25 C 1.671875 -2.15625 1.535156 -2.023438 1.421875 -1.859375 C 1.304688 -1.691406 1.25 -1.476562 1.25 -1.21875 C 1.25 -0.925781 1.320312 -0.703125 1.46875 -0.546875 C 1.613281 -0.398438 1.804688 -0.328125 2.046875 -0.328125 Z M 2.046875 -0.328125 "/></g></g></g><g fill="rgb(14.509583%, 20.388794%, 22.349548%)" fill-opacity="1"><g transform="translate(207.237781, 263.086892)"><g><path d="M 4.78125 -1.078125 C 4.78125 -0.773438 4.835938 -0.550781 4.953125 -0.40625 C 5.066406 -0.269531 5.257812 -0.203125 5.53125 -0.203125 L 5.53125 0 C 5.332031 -0.0195312 5.128906 -0.03125 4.921875 -0.03125 C 4.503906 -0.03125 4.160156 0.015625 3.890625 0.109375 L 3.890625 -0.765625 C 3.773438 -0.472656 3.597656 -0.25 3.359375 -0.09375 C 3.117188 0.0625 2.832031 0.140625 2.5 0.140625 C 1.863281 0.140625 1.363281 -0.0820312 1 -0.53125 C 0.644531 -0.988281 0.46875 -1.660156 0.46875 -2.546875 C 0.46875 -3.117188 0.566406 -3.609375 0.765625 -4.015625 C 0.972656 -4.421875 1.242188 -4.722656 1.578125 -4.921875 C 1.921875 -5.128906 2.296875 -5.234375 2.703125 -5.234375 C 2.953125 -5.234375 3.179688 -5.179688 3.390625 -5.078125 C 3.597656 -4.984375 3.765625 -4.84375 3.890625 -4.65625 L 3.890625 -6.5625 C 3.890625 -6.863281 3.832031 -7.082031 3.71875 -7.21875 C 3.613281 -7.363281 3.421875 -7.4375 3.140625 -7.4375 L 3.140625 -7.640625 C 3.359375 -7.617188 3.566406 -7.609375 3.765625 -7.609375 C 4.171875 -7.609375 4.507812 -7.65625 4.78125 -7.75 Z M 2.78125 -0.15625 C 3.039062 -0.15625 3.269531 -0.253906 3.46875 -0.453125 C 3.675781 -0.648438 3.816406 -0.929688 3.890625 -1.296875 L 3.890625 -4.25 C 3.710938 -4.75 3.347656 -5 2.796875 -5 C 2.378906 -5 2.046875 -4.789062 1.796875 -4.375 C 1.546875 -3.957031 1.425781 -3.347656 1.4375 -2.546875 C 1.425781 -1.753906 1.535156 -1.15625 1.765625 -0.75 C 1.992188 -0.351562 2.332031 -0.15625 2.78125 -0.15625 Z M 2.78125 -0.15625 "/></g></g></g><g fill="rgb(14.509583%, 20.388794%, 22.349548%)" fill-opacity="1"><g transform="translate(213.177414, 263.086892)"><g><path d="M 4.578125 -1.1875 C 4.460938 -0.820312 4.238281 -0.507812 3.90625 -0.25 C 3.582031 0.0078125 3.191406 0.140625 2.734375 0.140625 C 2.265625 0.140625 1.859375 0.0351562 1.515625 -0.171875 C 1.171875 -0.390625 0.90625 -0.691406 0.71875 -1.078125 C 0.539062 -1.460938 0.453125 -1.910156 0.453125 -2.421875 C 0.453125 -2.992188 0.546875 -3.488281 0.734375 -3.90625 C 0.921875 -4.332031 1.179688 -4.660156 1.515625 -4.890625 C 1.847656 -5.117188 2.238281 -5.234375 2.6875 -5.234375 C 3.28125 -5.234375 3.738281 -5.050781 4.0625 -4.6875 C 4.382812 -4.332031 4.546875 -3.789062 4.546875 -3.0625 L 1.4375 -3.0625 C 1.425781 -2.875 1.421875 -2.660156 1.421875 -2.421875 C 1.421875 -1.984375 1.488281 -1.601562 1.625 -1.28125 C 1.769531 -0.957031 1.957031 -0.707031 2.1875 -0.53125 C 2.425781 -0.363281 2.671875 -0.28125 2.921875 -0.28125 C 3.242188 -0.28125 3.523438 -0.351562 3.765625 -0.5 C 4.015625 -0.65625 4.21875 -0.910156 4.375 -1.265625 Z M 2.65625 -5.046875 C 2.34375 -5.046875 2.070312 -4.894531 1.84375 -4.59375 C 1.625 -4.289062 1.488281 -3.84375 1.4375 -3.25 L 3.59375 -3.25 C 3.601562 -3.757812 3.523438 -4.1875 3.359375 -4.53125 C 3.203125 -4.875 2.96875 -5.046875 2.65625 -5.046875 Z M 2.65625 -5.046875 "/></g></g></g><g fill="rgb(14.509583%, 20.388794%, 22.349548%)" fill-opacity="1"><g transform="translate(218.375826, 263.086892)"><g/></g></g><g fill="rgb(14.509583%, 20.388794%, 22.349548%)" fill-opacity="1"><g transform="translate(221.034331, 263.086892)"><g><path d="M 5.484375 -1.265625 C 5.484375 -0.890625 5.503906 -0.46875 5.546875 0 C 5.097656 -0.0195312 4.34375 -0.03125 3.28125 -0.03125 C 2.019531 -0.03125 1.066406 -0.0195312 0.421875 0 L 0.421875 -0.203125 C 0.648438 -0.210938 0.816406 -0.238281 0.921875 -0.28125 C 1.035156 -0.320312 1.113281 -0.394531 1.15625 -0.5 C 1.195312 -0.613281 1.21875 -0.796875 1.21875 -1.046875 L 1.21875 -5.953125 C 1.21875 -6.203125 1.195312 -6.382812 1.15625 -6.5 C 1.113281 -6.613281 1.035156 -6.6875 0.921875 -6.71875 C 0.816406 -6.757812 0.648438 -6.789062 0.421875 -6.8125 L 0.421875 -7 C 1.066406 -6.976562 2.019531 -6.96875 3.28125 -6.96875 C 4.25 -6.96875 4.9375 -6.976562 5.34375 -7 C 5.300781 -6.5625 5.28125 -6.171875 5.28125 -5.828125 C 5.28125 -5.578125 5.289062 -5.375 5.3125 -5.21875 L 5.078125 -5.21875 C 5.035156 -5.644531 4.976562 -5.960938 4.90625 -6.171875 C 4.832031 -6.378906 4.707031 -6.53125 4.53125 -6.625 C 4.363281 -6.726562 4.109375 -6.78125 3.765625 -6.78125 L 2.9375 -6.78125 C 2.695312 -6.78125 2.519531 -6.757812 2.40625 -6.71875 C 2.300781 -6.6875 2.226562 -6.613281 2.1875 -6.5 C 2.15625 -6.382812 2.140625 -6.203125 2.140625 -5.953125 L 2.140625 -3.625 L 2.796875 -3.625 C 3.023438 -3.625 3.203125 -3.675781 3.328125 -3.78125 C 3.453125 -3.894531 3.535156 -4.023438 3.578125 -4.171875 C 3.617188 -4.316406 3.648438 -4.503906 3.671875 -4.734375 L 3.703125 -4.921875 L 3.9375 -4.921875 C 3.914062 -4.648438 3.90625 -4.34375 3.90625 -4 L 3.90625 -3.515625 C 3.90625 -3.179688 3.925781 -2.710938 3.96875 -2.109375 L 3.734375 -2.109375 C 3.734375 -2.160156 3.710938 -2.320312 3.671875 -2.59375 C 3.640625 -2.863281 3.550781 -3.066406 3.40625 -3.203125 C 3.257812 -3.347656 3.054688 -3.421875 2.796875 -3.421875 L 2.140625 -3.421875 L 2.140625 -1.046875 C 2.140625 -0.796875 2.15625 -0.613281 2.1875 -0.5 C 2.226562 -0.394531 2.300781 -0.320312 2.40625 -0.28125 C 2.519531 -0.25 2.695312 -0.234375 2.9375 -0.234375 L 3.65625 -0.234375 C 4.0625 -0.234375 4.375 -0.285156 4.59375 -0.390625 C 4.8125 -0.492188 4.96875 -0.664062 5.0625 -0.90625 C 5.164062 -1.15625 5.238281 -1.515625 5.28125 -1.984375 L 5.515625 -1.984375 C 5.492188 -1.804688 5.484375 -1.566406 5.484375 -1.265625 Z M 5.484375 -1.265625 "/></g></g></g><g fill="rgb(14.509583%, 20.388794%, 22.349548%)" fill-opacity="1"><g transform="translate(227.250684, 263.086892)"><g><path d="M 1.609375 0.0625 C 1.191406 0.0625 0.882812 -0.0351562 0.6875 -0.234375 C 0.488281 -0.441406 0.390625 -0.734375 0.390625 -1.109375 C 0.390625 -1.398438 0.46875 -1.640625 0.625 -1.828125 C 0.789062 -2.023438 0.984375 -2.179688 1.203125 -2.296875 C 1.421875 -2.410156 1.710938 -2.53125 2.078125 -2.65625 C 2.441406 -2.78125 2.710938 -2.894531 2.890625 -3 C 3.078125 -3.101562 3.171875 -3.242188 3.171875 -3.421875 L 3.171875 -4.03125 C 3.171875 -4.414062 3.085938 -4.675781 2.921875 -4.8125 C 2.765625 -4.957031 2.539062 -5.03125 2.25 -5.03125 C 1.78125 -5.03125 1.453125 -4.910156 1.265625 -4.671875 C 1.398438 -4.640625 1.507812 -4.570312 1.59375 -4.46875 C 1.6875 -4.363281 1.734375 -4.234375 1.734375 -4.078125 C 1.734375 -3.910156 1.679688 -3.78125 1.578125 -3.6875 C 1.472656 -3.59375 1.335938 -3.546875 1.171875 -3.546875 C 0.984375 -3.546875 0.84375 -3.601562 0.75 -3.71875 C 0.65625 -3.832031 0.609375 -3.972656 0.609375 -4.140625 C 0.609375 -4.296875 0.644531 -4.425781 0.71875 -4.53125 C 0.800781 -4.632812 0.914062 -4.738281 1.0625 -4.84375 C 1.226562 -4.957031 1.429688 -5.050781 1.671875 -5.125 C 1.910156 -5.195312 2.175781 -5.234375 2.46875 -5.234375 C 2.988281 -5.234375 3.378906 -5.109375 3.640625 -4.859375 C 3.804688 -4.710938 3.914062 -4.53125 3.96875 -4.3125 C 4.03125 -4.101562 4.0625 -3.820312 4.0625 -3.46875 L 4.0625 -0.71875 C 4.0625 -0.550781 4.082031 -0.429688 4.125 -0.359375 C 4.164062 -0.285156 4.242188 -0.25 4.359375 -0.25 C 4.441406 -0.25 4.515625 -0.265625 4.578125 -0.296875 C 4.648438 -0.335938 4.726562 -0.394531 4.8125 -0.46875 L 4.921875 -0.296875 C 4.742188 -0.160156 4.59375 -0.0664062 4.46875 -0.015625 C 4.351562 0.0351562 4.203125 0.0625 4.015625 0.0625 C 3.703125 0.0625 3.484375 -0.015625 3.359375 -0.171875 C 3.234375 -0.328125 3.171875 -0.539062 3.171875 -0.8125 C 2.972656 -0.476562 2.742188 -0.25 2.484375 -0.125 C 2.222656 0 1.929688 0.0625 1.609375 0.0625 Z M 2.046875 -0.328125 C 2.484375 -0.328125 2.859375 -0.578125 3.171875 -1.078125 L 3.171875 -3.015625 C 3.109375 -2.921875 3.023438 -2.84375 2.921875 -2.78125 C 2.816406 -2.726562 2.65625 -2.648438 2.4375 -2.546875 C 2.1875 -2.441406 1.984375 -2.34375 1.828125 -2.25 C 1.671875 -2.15625 1.535156 -2.023438 1.421875 -1.859375 C 1.304688 -1.691406 1.25 -1.476562 1.25 -1.21875 C 1.25 -0.925781 1.320312 -0.703125 1.46875 -0.546875 C 1.613281 -0.398438 1.804688 -0.328125 2.046875 -0.328125 Z M 2.046875 -0.328125 "/></g></g></g><g fill="rgb(14.509583%, 20.388794%, 22.349548%)" fill-opacity="1"><g transform="translate(232.370038, 263.086892)"><g><path d="M 2.0625 -5.234375 C 2.289062 -5.234375 2.5 -5.195312 2.6875 -5.125 C 2.875 -5.050781 3.023438 -4.960938 3.140625 -4.859375 C 3.210938 -4.804688 3.269531 -4.78125 3.3125 -4.78125 C 3.425781 -4.78125 3.5 -4.925781 3.53125 -5.21875 L 3.765625 -5.21875 C 3.734375 -4.894531 3.71875 -4.335938 3.71875 -3.546875 L 3.484375 -3.546875 C 3.410156 -3.972656 3.269531 -4.328125 3.0625 -4.609375 C 2.863281 -4.898438 2.554688 -5.046875 2.140625 -5.046875 C 1.910156 -5.046875 1.71875 -4.976562 1.5625 -4.84375 C 1.40625 -4.707031 1.328125 -4.519531 1.328125 -4.28125 C 1.328125 -4.050781 1.40625 -3.859375 1.5625 -3.703125 C 1.726562 -3.546875 1.984375 -3.359375 2.328125 -3.140625 C 2.390625 -3.109375 2.476562 -3.054688 2.59375 -2.984375 C 2.90625 -2.785156 3.148438 -2.609375 3.328125 -2.453125 C 3.515625 -2.296875 3.664062 -2.117188 3.78125 -1.921875 C 3.894531 -1.722656 3.953125 -1.5 3.953125 -1.25 C 3.953125 -0.8125 3.789062 -0.46875 3.46875 -0.21875 C 3.144531 0.0195312 2.742188 0.140625 2.265625 0.140625 C 1.960938 0.140625 1.703125 0.09375 1.484375 0 C 1.335938 -0.0703125 1.203125 -0.160156 1.078125 -0.265625 C 1.046875 -0.296875 1.015625 -0.3125 0.984375 -0.3125 C 0.941406 -0.3125 0.898438 -0.273438 0.859375 -0.203125 C 0.828125 -0.140625 0.800781 -0.0507812 0.78125 0.0625 L 0.546875 0.0625 C 0.578125 -0.3125 0.59375 -0.96875 0.59375 -1.90625 L 0.828125 -1.90625 C 0.898438 -1.289062 1.03125 -0.828125 1.21875 -0.515625 C 1.40625 -0.210938 1.734375 -0.0625 2.203125 -0.0625 C 2.429688 -0.0625 2.632812 -0.132812 2.8125 -0.28125 C 2.988281 -0.4375 3.078125 -0.675781 3.078125 -1 C 3.078125 -1.257812 2.988281 -1.476562 2.8125 -1.65625 C 2.632812 -1.832031 2.347656 -2.046875 1.953125 -2.296875 C 1.628906 -2.492188 1.378906 -2.660156 1.203125 -2.796875 C 1.035156 -2.929688 0.890625 -3.09375 0.765625 -3.28125 C 0.648438 -3.476562 0.59375 -3.703125 0.59375 -3.953125 C 0.59375 -4.367188 0.726562 -4.6875 1 -4.90625 C 1.28125 -5.125 1.632812 -5.234375 2.0625 -5.234375 Z M 2.0625 -5.234375 "/></g></g></g><g fill="rgb(14.509583%, 20.388794%, 22.349548%)" fill-opacity="1"><g transform="translate(236.985368, 263.086892)"><g><path d="M 4.140625 -5.0625 C 4.421875 -5.0625 4.671875 -5.070312 4.890625 -5.09375 L 4.890625 -4.890625 C 4.753906 -4.878906 4.632812 -4.820312 4.53125 -4.71875 C 4.425781 -4.613281 4.332031 -4.441406 4.25 -4.203125 L 2.625 0.046875 L 2.28125 0.90625 C 2.15625 1.226562 2.015625 1.460938 1.859375 1.609375 C 1.765625 1.691406 1.644531 1.753906 1.5 1.796875 C 1.363281 1.835938 1.226562 1.859375 1.09375 1.859375 C 0.894531 1.859375 0.734375 1.804688 0.609375 1.703125 C 0.484375 1.597656 0.421875 1.453125 0.421875 1.265625 C 0.421875 1.109375 0.460938 0.976562 0.546875 0.875 C 0.640625 0.78125 0.769531 0.734375 0.9375 0.734375 C 1.082031 0.734375 1.203125 0.773438 1.296875 0.859375 C 1.390625 0.941406 1.4375 1.054688 1.4375 1.203125 C 1.4375 1.398438 1.347656 1.550781 1.171875 1.65625 C 1.191406 1.65625 1.210938 1.65625 1.234375 1.65625 C 1.597656 1.65625 1.878906 1.398438 2.078125 0.890625 L 2.421875 -0.015625 L 0.640625 -4.328125 C 0.523438 -4.554688 0.410156 -4.707031 0.296875 -4.78125 C 0.179688 -4.851562 0.0664062 -4.890625 -0.046875 -4.890625 L -0.046875 -5.09375 C 0.242188 -5.050781 0.570312 -5.03125 0.9375 -5.03125 C 1.257812 -5.03125 1.6875 -5.050781 2.21875 -5.09375 L 2.21875 -4.890625 C 1.976562 -4.890625 1.800781 -4.867188 1.6875 -4.828125 C 1.582031 -4.785156 1.53125 -4.691406 1.53125 -4.546875 C 1.53125 -4.398438 1.570312 -4.238281 1.65625 -4.0625 L 2.84375 -1.109375 L 3.9375 -3.96875 C 4.007812 -4.164062 4.046875 -4.316406 4.046875 -4.421875 C 4.046875 -4.578125 3.984375 -4.6875 3.859375 -4.75 C 3.742188 -4.820312 3.554688 -4.867188 3.296875 -4.890625 L 3.296875 -5.09375 C 3.648438 -5.070312 3.929688 -5.0625 4.140625 -5.0625 Z M 4.140625 -5.0625 "/></g></g></g></svg>